<?xml version="1.0" encoding="UTF-8" standalone="no"?>
<!-- Created with Inkscape (http://www.inkscape.org/) -->

<svg
   xmlns:dc="http://purl.org/dc/elements/1.1/"
   xmlns:cc="http://creativecommons.org/ns#"
   xmlns:rdf="http://www.w3.org/1999/02/22-rdf-syntax-ns#"
   xmlns:svg="http://www.w3.org/2000/svg"
   xmlns="http://www.w3.org/2000/svg"
   xmlns:sodipodi="http://sodipodi.sourceforge.net/DTD/sodipodi-0.dtd"
   xmlns:inkscape="http://www.inkscape.org/namespaces/inkscape"
   version="1.1"
   id="svg2"
   xml:space="preserve"
   width="142.92267"
   height="104.65107"
   viewBox="0 0 142.92267 104.65107"
   sodipodi:docname="Mendel University_logo-ENG_cmyk.svg"
   inkscape:version="0.92.4 (5da689c313, 2019-01-14)"><metadata
     id="metadata8"><rdf:RDF><cc:Work
         rdf:about=""><dc:format>image/svg+xml</dc:format><dc:type
           rdf:resource="http://purl.org/dc/dcmitype/StillImage" /><dc:title></dc:title></cc:Work></rdf:RDF></metadata><defs
     id="defs6"><clipPath
       clipPathUnits="userSpaceOnUse"
       id="clipPath18"><path
         d="M 0,78.488 H 107.192 V 0 H 0 Z"
         id="path16"
         inkscape:connector-curvature="0" /></clipPath></defs><sodipodi:namedview
     pagecolor="#ffffff"
     bordercolor="#666666"
     borderopacity="1"
     objecttolerance="10"
     gridtolerance="10"
     guidetolerance="10"
     inkscape:pageopacity="0"
     inkscape:pageshadow="2"
     inkscape:window-width="2560"
     inkscape:window-height="1377"
     id="namedview4"
     showgrid="false"
     inkscape:zoom="2.2551131"
     inkscape:cx="71.461334"
     inkscape:cy="52.325535"
     inkscape:window-x="-8"
     inkscape:window-y="-8"
     inkscape:window-maximized="1"
     inkscape:current-layer="g10" /><g
     id="g10"
     inkscape:groupmode="layer"
     inkscape:label="Mendel University_logo-ENG_cmyk"
     transform="matrix(1.3333333,0,0,-1.3333333,0,104.65107)"><g
       id="g12"><g
         id="g14"
         clip-path="url(#clipPath18)"><g
           id="g20"
           transform="translate(23.9866,31.7764)"><path
             d="m 0,0 c 0,3.012 2.441,5.457 5.452,5.457 3.011,0 5.451,-2.445 5.451,-5.457 0,-3.007 -2.44,-5.45 -5.451,-5.45 C 2.441,-5.45 0,-3.007 0,0"
             style="fill:#78cb49;fill-opacity:1;fill-rule:nonzero;stroke:none"
             id="path22"
             inkscape:connector-curvature="0" /></g><g
           id="g24"
           transform="translate(30.5288,16.5137)"><path
             d="m 0,0 c 0,3.013 2.44,5.448 5.451,5.448 3.011,0 5.452,-2.435 5.452,-5.448 0,-3.013 -2.441,-5.45 -5.452,-5.45 C 2.44,-5.45 0,-3.015 0,0"
             style="fill:#78cb49;fill-opacity:1;fill-rule:nonzero;stroke:none"
             id="path26"
             inkscape:connector-curvature="0" /></g><g
           id="g28"
           transform="translate(10.9031,62.3076)"><path
             d="m 0,0 c 0,3.012 2.441,5.449 5.451,5.449 3.012,0 5.453,-2.437 5.453,-5.449 0,-3.014 -2.441,-5.45 -5.453,-5.45 C 2.441,-5.45 0,-3.014 0,0"
             style="fill:#78cb49;fill-opacity:1;fill-rule:nonzero;stroke:none"
             id="path30"
             inkscape:connector-curvature="0" /></g><g
           id="g32"
           transform="translate(17.4448,47.0439)"><path
             d="m 0,0 c 0,3.006 2.441,5.447 5.451,5.447 3.011,0 5.452,-2.441 5.452,-5.447 0,-3.012 -2.441,-5.456 -5.452,-5.456 C 2.441,-5.456 0,-3.012 0,0"
             style="fill:#78cb49;fill-opacity:1;fill-rule:nonzero;stroke:none"
             id="path34"
             inkscape:connector-curvature="0" /></g><g
           id="g36"
           transform="translate(36.759,52.5127)"><path
             d="m 0,0 v -5.111 c 0,-1.371 0.91,-2.244 2.207,-2.244 1.296,0 2.206,0.873 2.206,2.244 V 0 h 1.746 v -5.124 c 0,-2.182 -1.659,-3.728 -3.952,-3.728 -2.307,0 -3.952,1.546 -3.952,3.728 l 0,5.124 z"
             style="fill:#231f20;fill-opacity:1;fill-rule:nonzero;stroke:none"
             id="path38"
             inkscape:connector-curvature="0" /></g><g
           id="g40"
           transform="translate(44.4099,50.2441)"><path
             d="m 0,0 h 1.596 v -0.848 c 0.448,0.611 1.172,0.972 2.044,0.972 1.533,0 2.606,-1.097 2.606,-2.643 V -6.458 H 4.65 v 3.74 c 0,0.885 -0.636,1.508 -1.533,1.508 -0.886,0 -1.521,-0.623 -1.521,-1.52 V -6.458 H 0 Z"
             style="fill:#231f20;fill-opacity:1;fill-rule:nonzero;stroke:none"
             id="path42"
             inkscape:connector-curvature="0" /></g><path
           d="m 52.086,50.244 h 1.596 v -6.458 h -1.596 z m 0.798,2.792 c 0.536,0 0.947,-0.411 0.947,-0.947 0,-0.524 -0.411,-0.936 -0.947,-0.936 -0.524,0 -0.935,0.412 -0.935,0.936 0,0.536 0.411,0.947 0.935,0.947"
           style="fill:#231f20;fill-opacity:1;fill-rule:nonzero;stroke:none"
           id="path44"
           inkscape:connector-curvature="0" /><g
           id="g46"
           transform="translate(54.4907,50.2441)"><path
             d="M 0,0 H 1.795 L 3.603,-4.737 5.41,0 H 7.106 L 4.438,-6.458 h -1.77 z"
             style="fill:#231f20;fill-opacity:1;fill-rule:nonzero;stroke:none"
             id="path48"
             inkscape:connector-curvature="0" /></g><g
           id="g50"
           transform="translate(66.9792,47.6631)"><path
             d="M 0,0 C -0.174,0.761 -0.823,1.434 -1.72,1.434 -2.618,1.434 -3.266,0.773 -3.441,0 Z m -1.72,2.705 c 2.094,0 3.627,-1.608 3.366,-3.827 h -5.124 c 0.124,-0.947 0.86,-1.608 1.758,-1.608 0.76,0 1.246,0.399 1.521,0.948 h 1.682 c -0.436,-1.347 -1.632,-2.22 -3.216,-2.22 -1.97,0 -3.403,1.422 -3.403,3.354 0,1.945 1.446,3.353 3.416,3.353"
             style="fill:#231f20;fill-opacity:1;fill-rule:nonzero;stroke:none"
             id="path52"
             inkscape:connector-curvature="0" /></g><g
           id="g54"
           transform="translate(69.9058,50.2441)"><path
             d="M 0,0 H 1.596 V -0.86 C 2.094,-0.125 2.955,0.249 3.84,0.074 V -1.422 C 2.531,-1.185 1.596,-1.783 1.596,-2.855 V -6.458 H 0 Z"
             style="fill:#231f20;fill-opacity:1;fill-rule:nonzero;stroke:none"
             id="path56"
             inkscape:connector-curvature="0" /></g><g
           id="g58"
           transform="translate(75.9128,45.8057)"><path
             d="m 0,0 c 0.075,-0.573 0.511,-0.947 1.371,-0.947 0.898,0 1.297,0.311 1.297,0.735 0,1.409 -4.114,0.025 -4.114,2.78 0,1.084 1.009,1.994 2.767,1.994 1.671,0 2.606,-0.81 2.768,-2.131 H 2.493 C 2.406,2.992 1.97,3.366 1.271,3.366 0.523,3.366 0.125,3.055 0.125,2.631 c 0,-1.409 4.126,0.024 4.126,-2.78 0,-1.073 -1.022,-1.996 -2.93,-1.996 -1.82,0 -2.767,0.811 -2.929,2.145 z"
             style="fill:#231f20;fill-opacity:1;fill-rule:nonzero;stroke:none"
             id="path60"
             inkscape:connector-curvature="0" /></g><path
           d="m 81.408,50.244 h 1.596 v -6.458 h -1.596 z m 0.798,2.792 c 0.535,0 0.947,-0.411 0.947,-0.947 0,-0.524 -0.412,-0.936 -0.947,-0.936 -0.524,0 -0.935,0.412 -0.935,0.936 0,0.536 0.411,0.947 0.935,0.947"
           style="fill:#231f20;fill-opacity:1;fill-rule:nonzero;stroke:none"
           id="path62"
           inkscape:connector-curvature="0" /><g
           id="g64"
           transform="translate(85.2209,52.0137)"><path
             d="M 0,0 H 1.596 V -1.77 H 3.59 V -3.079 H 1.596 v -2.718 c 0,-0.947 0.561,-1.446 1.994,-1.047 V -8.178 C 1.047,-8.776 0,-7.592 0,-5.809 v 2.73 h -1.159 v 1.309 l 1.159,0 z"
             style="fill:#231f20;fill-opacity:1;fill-rule:nonzero;stroke:none"
             id="path66"
             inkscape:connector-curvature="0" /></g><g
           id="g68"
           transform="translate(91.9133,43.624)"><path
             d="m 0,0 -2.73,6.62 h 1.795 L 0.873,1.883 2.68,6.62 H 4.376 L 0.673,-2.331 h -1.67 z"
             style="fill:#231f20;fill-opacity:1;fill-rule:nonzero;stroke:none"
             id="path70"
             inkscape:connector-curvature="0" /></g><path
           d="m 41.556,34.98 h 1.596 v -6.458 h -1.596 z m 0.798,2.792 c 0.535,0 0.947,-0.411 0.947,-0.947 0,-0.523 -0.412,-0.935 -0.947,-0.935 -0.524,0 -0.936,0.412 -0.936,0.935 0,0.536 0.412,0.947 0.936,0.947"
           style="fill:#231f20;fill-opacity:1;fill-rule:nonzero;stroke:none"
           id="path72"
           inkscape:connector-curvature="0" /><g
           id="g74"
           transform="translate(44.646,34.9805)"><path
             d="m 0,0 h 1.596 v -0.848 c 0.448,0.611 1.171,0.972 2.044,0.972 1.534,0 2.606,-1.097 2.606,-2.643 V -6.458 H 4.65 v 3.74 c 0,0.885 -0.636,1.508 -1.534,1.508 -0.885,0 -1.52,-0.623 -1.52,-1.52 V -6.458 H 0 Z"
             style="fill:#231f20;fill-opacity:1;fill-rule:nonzero;stroke:none"
             id="path76"
             inkscape:connector-curvature="0" /></g><g
           id="g78"
           transform="translate(60.187,29.9561)"><path
             d="M 0,0 C 0.698,0 1.147,0.486 1.147,1.109 1.147,1.732 0.698,2.219 0,2.219 H -2.693 V 0 Z m -0.249,3.652 c 0.698,0 1.147,0.474 1.147,1.098 0,0.623 -0.449,1.109 -1.147,1.109 H -2.693 V 3.652 Z m -4.127,3.641 h 4.488 c 1.509,0 2.544,-1.035 2.544,-2.381 0,-0.798 -0.387,-1.496 -1.01,-1.907 0.785,-0.387 1.259,-1.148 1.259,-2.058 0,-1.334 -1.035,-2.381 -2.543,-2.381 h -4.738 z"
             style="fill:#231f20;fill-opacity:1;fill-rule:nonzero;stroke:none"
             id="path80"
             inkscape:connector-curvature="0" /></g><g
           id="g82"
           transform="translate(64.2104,34.9805)"><path
             d="M 0,0 H 1.596 V -0.86 C 2.094,-0.125 2.954,0.249 3.84,0.074 V -1.422 C 2.531,-1.185 1.596,-1.783 1.596,-2.855 V -6.458 H 0 Z"
             style="fill:#231f20;fill-opacity:1;fill-rule:nonzero;stroke:none"
             id="path84"
             inkscape:connector-curvature="0" /></g><g
           id="g86"
           transform="translate(69.1077,34.9805)"><path
             d="m 0,0 h 1.596 v -0.848 c 0.448,0.611 1.172,0.972 2.044,0.972 1.533,0 2.606,-1.097 2.606,-2.643 V -6.458 H 4.65 v 3.74 c 0,0.885 -0.636,1.508 -1.533,1.508 -0.886,0 -1.521,-0.623 -1.521,-1.52 V -6.458 H 0 Z"
             style="fill:#231f20;fill-opacity:1;fill-rule:nonzero;stroke:none"
             id="path88"
             inkscape:connector-curvature="0" /></g><g
           id="g90"
           transform="translate(79.9753,29.7314)"><path
             d="M 0,0 C 1.01,0 1.77,0.848 1.77,2.02 1.77,3.204 1.01,4.039 0,4.039 -1.01,4.039 -1.77,3.204 -1.77,2.02 -1.77,0.848 -1.01,0 0,0 m 0,5.373 c 1.995,0 3.441,-1.408 3.441,-3.353 0,-1.932 -1.446,-3.354 -3.441,-3.354 -1.982,0 -3.441,1.422 -3.441,3.354 0,1.945 1.459,3.353 3.441,3.353"
             style="fill:#231f20;fill-opacity:1;fill-rule:nonzero;stroke:none"
             id="path92"
             inkscape:connector-curvature="0" /></g><g
           id="g94"
           transform="translate(29.0605,67.7588)"><path
             d="M 0,0 H 1.658 L 4.637,-4.177 7.567,0 H 9.188 V -8.727 H 7.442 V -2.93 L 4.6,-6.944 1.745,-2.967 v -5.76 H 0 Z"
             style="fill:#231f20;fill-opacity:1;fill-rule:nonzero;stroke:none"
             id="path96"
             inkscape:connector-curvature="0" /></g><g
           id="g98"
           transform="translate(44.6267,62.9092)"><path
             d="M 0,0 C -0.174,0.761 -0.823,1.434 -1.72,1.434 -2.618,1.434 -3.266,0.773 -3.441,0 Z m -1.72,2.705 c 2.094,0 3.627,-1.608 3.366,-3.827 h -5.124 c 0.124,-0.947 0.86,-1.608 1.758,-1.608 0.76,0 1.246,0.399 1.521,0.948 h 1.682 c -0.436,-1.347 -1.632,-2.22 -3.216,-2.22 -1.97,0 -3.403,1.422 -3.403,3.354 0,1.945 1.446,3.353 3.416,3.353"
             style="fill:#231f20;fill-opacity:1;fill-rule:nonzero;stroke:none"
             id="path100"
             inkscape:connector-curvature="0" /></g><g
           id="g102"
           transform="translate(47.5532,65.4902)"><path
             d="m 0,0 h 1.596 v -0.848 c 0.449,0.611 1.172,0.972 2.044,0.972 1.534,0 2.606,-1.097 2.606,-2.643 V -6.458 H 4.65 v 3.74 c 0,0.885 -0.636,1.508 -1.533,1.508 -0.885,0 -1.521,-0.623 -1.521,-1.52 V -6.458 H 0 Z"
             style="fill:#231f20;fill-opacity:1;fill-rule:nonzero;stroke:none"
             id="path104"
             inkscape:connector-curvature="0" /></g><g
           id="g106"
           transform="translate(58.4209,60.2412)"><path
             d="M 0,0 C 1.01,0 1.77,0.848 1.77,2.02 1.77,3.204 1.01,4.039 0,4.039 -1.01,4.039 -1.77,3.204 -1.77,2.02 -1.77,0.848 -1.01,0 0,0 m 1.77,-0.236 c -0.536,-0.686 -1.321,-1.098 -2.244,-1.098 -1.707,0 -2.967,1.422 -2.967,3.354 0,1.945 1.26,3.353 3.03,3.353 0.91,0 1.683,-0.386 2.181,-1.047 V 8.017 H 3.366 V -1.209 H 1.77 Z"
             style="fill:#231f20;fill-opacity:1;fill-rule:nonzero;stroke:none"
             id="path108"
             inkscape:connector-curvature="0" /></g><g
           id="g110"
           transform="translate(68.1665,62.9092)"><path
             d="M 0,0 C -0.175,0.761 -0.823,1.434 -1.72,1.434 -2.618,1.434 -3.266,0.773 -3.441,0 Z m -1.72,2.705 c 2.094,0 3.627,-1.608 3.366,-3.827 h -5.124 c 0.125,-0.947 0.86,-1.608 1.758,-1.608 0.76,0 1.246,0.399 1.521,0.948 h 1.683 c -0.437,-1.347 -1.634,-2.22 -3.217,-2.22 -1.969,0 -3.403,1.422 -3.403,3.354 0,1.945 1.446,3.353 3.416,3.353"
             style="fill:#231f20;fill-opacity:1;fill-rule:nonzero;stroke:none"
             id="path112"
             inkscape:connector-curvature="0" /></g><path
           d="m 71.093,68.258 h 1.596 v -9.226 h -1.596 z"
           style="fill:#231f20;fill-opacity:1;fill-rule:nonzero;stroke:none"
           id="path114"
           inkscape:connector-curvature="0" /></g></g></g></svg>